<?xml version="1.0" standalone="no"?>
<!DOCTYPE svg PUBLIC "-//W3C//DTD SVG 20010904//EN"
 "http://www.w3.org/TR/2001/REC-SVG-20010904/DTD/svg10.dtd">
<svg version="1.0" xmlns="http://www.w3.org/2000/svg"
 width="701.000000pt" height="701.000000pt" viewBox="0 0 701.000000 701.000000"
 preserveAspectRatio="xMidYMid meet">
<metadata>
Created by potrace 1.11, written by Peter Selinger 2001-2013
</metadata>
<g transform="translate(0.000000,701.000000) scale(0.100000,-0.100000)"
fill="#000000" stroke="none">
<path d="M3585 6922 c-16 -2 -34 -9 -38 -15 -6 -9 -10 -9 -14 1 -4 10 -8 10
-20 1 -11 -10 -16 -10 -23 0 -5 9 -13 10 -21 5 -8 -5 -20 -10 -26 -11 -7 -2
-19 -4 -25 -6 -7 -1 -19 -7 -27 -11 -10 -7 -12 -5 -6 3 6 10 3 11 -14 2 -11
-7 -21 -9 -21 -5 0 3 -7 1 -15 -6 -8 -7 -15 -9 -15 -5 0 4 -7 2 -15 -5 -8 -6
-19 -9 -25 -5 -5 3 -10 1 -10 -5 0 -7 -7 -10 -15 -6 -8 3 -15 1 -15 -5 0 -6
-7 -8 -16 -5 -8 3 -12 2 -9 -4 3 -6 -3 -10 -14 -10 -12 0 -21 -4 -21 -9 0 -6
-9 -8 -20 -6 -11 2 -18 0 -15 -6 4 -5 -1 -9 -9 -9 -9 0 -16 -5 -16 -11 0 -5
-4 -7 -10 -4 -5 3 -10 1 -10 -6 0 -7 -3 -9 -6 -6 -4 4 -15 -2 -25 -14 -12 -14
-18 -16 -22 -7 -4 10 -6 10 -6 1 -1 -7 -8 -13 -16 -13 -8 0 -15 -4 -15 -10 0
-5 -7 -10 -15 -10 -7 0 -18 -8 -24 -17 -5 -10 -12 -17 -15 -15 -10 5 -76 -30
-76 -40 0 -5 -4 -6 -10 -3 -5 3 -10 1 -10 -5 0 -6 -4 -9 -9 -6 -5 3 -20 -4
-35 -15 -14 -11 -26 -17 -26 -12 0 4 -5 0 -11 -9 -5 -10 -17 -18 -24 -18 -8 0
-15 -5 -15 -11 0 -5 -5 -7 -10 -4 -6 3 -13 -1 -16 -10 -4 -9 -12 -14 -19 -11
-8 3 -16 -2 -19 -11 -4 -8 -13 -13 -20 -10 -8 3 -17 -1 -20 -9 -3 -9 -10 -12
-16 -9 -5 3 -10 -1 -10 -9 0 -9 -3 -15 -7 -15 -20 3 -34 -3 -54 -23 -12 -13
-19 -17 -15 -11 5 9 2 11 -8 7 -9 -3 -16 -11 -16 -16 0 -6 -7 -7 -16 -4 -8 3
-13 2 -11 -2 7 -11 -17 -29 -36 -26 -9 1 -15 -2 -12 -7 3 -4 -6 -11 -20 -15
-14 -3 -25 -9 -25 -13 0 -3 -23 -17 -50 -30 -27 -14 -47 -28 -44 -33 3 -4 -2
-5 -10 -2 -9 3 -16 1 -16 -5 0 -6 -9 -11 -20 -11 -12 0 -20 -7 -20 -17 0 -14
-2 -15 -9 -5 -7 11 -9 10 -15 -3 -3 -9 -10 -13 -16 -10 -5 3 -10 1 -10 -4 0
-6 -7 -11 -15 -11 -9 0 -18 -7 -21 -15 -4 -8 -10 -12 -15 -9 -5 3 -9 0 -9 -6
0 -6 -4 -8 -10 -5 -5 3 -10 1 -10 -5 0 -6 -4 -9 -10 -5 -5 3 -19 -4 -30 -15
-11 -11 -25 -18 -30 -15 -6 4 -10 3 -10 -2 0 -8 -58 -46 -72 -47 -4 -1 -16 -9
-28 -18 -11 -10 -20 -15 -20 -11 0 4 -7 -2 -15 -13 -11 -14 -14 -15 -15 -4 0
10 -5 7 -16 -8 -8 -12 -22 -22 -29 -22 -8 0 -20 -9 -27 -20 -7 -11 -21 -20
-31 -20 -13 0 -17 -5 -13 -15 5 -13 -5 -20 -26 -16 -5 0 -8 -3 -8 -9 0 -5 -20
-29 -44 -52 -24 -24 -45 -47 -47 -53 -2 -5 -7 -9 -11 -7 -5 1 -8 -5 -8 -13 0
-8 -4 -15 -10 -15 -5 0 -10 -7 -10 -16 0 -8 -5 -12 -10 -9 -6 4 -10 3 -9 -2 3
-18 -2 -32 -16 -46 -8 -8 -16 -21 -17 -28 -2 -8 -10 -19 -18 -26 -11 -9 -12
-12 -2 -13 8 0 6 -7 -7 -22 -11 -11 -18 -25 -15 -30 3 -4 0 -8 -6 -8 -6 0 -8
-4 -5 -10 3 -5 2 -10 -3 -10 -6 0 -9 -6 -9 -12 1 -24 -16 -78 -24 -78 -5 0 -5
-7 -2 -17 5 -11 3 -14 -6 -8 -10 6 -11 3 -2 -14 7 -11 8 -21 3 -21 -5 0 -9 -6
-9 -12 -6 -95 -12 -133 -22 -136 -6 -2 -8 -8 -5 -14 10 -16 12 -78 2 -72 -13
9 -9 -3 8 -20 9 -9 11 -16 4 -16 -6 0 -8 -4 -5 -10 3 -5 1 -10 -6 -10 -9 0 -9
-3 0 -14 8 -10 9 -16 1 -21 -6 -3 -7 -11 -4 -17 11 -18 12 -78 1 -71 -6 4 -7
1 -2 -7 13 -21 14 -91 1 -83 -6 3 -6 0 2 -8 15 -16 16 -33 0 -23 -7 5 -8 3 -3
-6 10 -17 13 -180 3 -173 -14 8 -9 -5 8 -21 9 -9 11 -16 4 -16 -6 0 -8 -4 -5
-10 3 -5 1 -10 -6 -10 -9 0 -9 -3 0 -14 8 -10 9 -16 1 -21 -6 -3 -7 -11 -4
-17 11 -18 12 -78 1 -71 -6 4 -7 1 -2 -7 13 -21 14 -91 1 -83 -6 3 -6 0 2 -8
15 -16 16 -33 0 -23 -7 5 -8 3 -3 -6 10 -17 13 -180 3 -173 -14 8 -9 -5 8 -21
9 -9 11 -16 4 -16 -6 0 -8 -4 -5 -10 3 -5 1 -10 -6 -10 -9 0 -9 -3 0 -14 8
-10 9 -16 1 -21 -6 -3 -7 -11 -4 -17 11 -18 12 -78 1 -71 -6 4 -7 1 -2 -7 13
-21 14 -91 1 -83 -6 3 -6 0 2 -8 15 -16 16 -33 0 -23 -7 5 -8 3 -3 -6 10 -17
13 -180 3 -173 -14 8 -9 -5 8 -21 9 -9 11 -16 4 -16 -6 0 -8 -4 -5 -10 3 -5 1
-10 -6 -10 -9 0 -9 -3 0 -14 8 -10 9 -16 1 -21 -6 -3 -7 -11 -4 -17 11 -18 12
-78 1 -71 -6 4 -7 1 -2 -7 13 -21 14 -91 1 -83 -6 3 -6 0 2 -8 15 -16 16 -33
0 -23 -7 5 -8 3 -3 -6 10 -17 13 -180 3 -174 -4 3 -5 -2 -2 -10 3 -9 11 -16
18 -16 6 0 4 -5 -4 -10 -8 -5 -10 -10 -5 -10 6 0 3 -5 -5 -10 -13 -8 -13 -10
-1 -10 11 0 9 -4 -5 -15 -24 -18 -38 -19 -28 -2 5 7 1 7 -10 -2 -15 -13 -19
-13 -27 0 -5 8 -9 9 -9 3 0 -6 -19 -11 -42 -11 -97 -2 -144 -7 -157 -17 -11
-8 -13 -8 -7 2 4 7 1 12 -8 12 -9 0 -16 -6 -16 -12 0 -9 -3 -9 -8 -2 -8 12
-61 12 -81 0 -10 -7 -12 -6 -6 4 6 9 4 11 -5 5 -20 -13 -63 -15 -76 -4 -8 7
-14 6 -19 -1 -3 -5 -18 -7 -32 -4 -17 5 -24 3 -19 -4 4 -7 -3 -8 -24 -2 -17 5
-30 5 -30 0 0 -5 -7 -6 -17 -3 -12 5 -14 3 -8 -7 6 -10 4 -11 -6 -4 -21 13
-43 14 -50 2 -4 -6 -11 -5 -20 5 -12 13 -15 12 -27 -2 -8 -9 -10 -10 -6 -2 6
11 3 13 -12 7 -39 -16 -66 -17 -58 -4 6 10 5 10 -7 2 -8 -7 -33 -11 -57 -10
-23 1 -42 -1 -42 -6 0 -4 -6 -5 -14 -2 -8 3 -17 1 -21 -5 -3 -6 -12 -11 -18
-11 -8 0 -7 3 2 9 9 6 -6 8 -41 7 -30 -2 -60 -6 -67 -10 -6 -4 -19 -2 -28 6
-9 7 -14 8 -10 2 4 -7 0 -14 -8 -18 -8 -3 -15 -2 -15 3 0 10 -82 2 -94 -9 -14
-14 5 -32 30 -27 13 2 25 -1 28 -7 3 -7 5 -6 5 2 1 7 5 11 9 8 5 -3 29 -6 55
-7 26 -2 47 -7 47 -12 0 -5 7 -4 15 3 12 10 15 10 15 0 0 -10 3 -10 15 0 12
10 15 10 15 0 0 -10 3 -10 15 0 12 10 15 10 15 0 0 -8 3 -11 6 -8 3 4 19 2 35
-2 20 -6 29 -5 29 3 0 7 4 6 10 -3 6 -10 10 -11 10 -3 0 9 7 10 25 3 16 -6 25
-6 25 1 0 6 6 6 18 1 9 -5 27 -8 39 -7 13 1 23 -2 23 -6 0 -5 11 -4 25 1 14 5
25 6 25 1 0 -9 31 -8 48 3 6 4 12 3 12 -2 0 -5 14 -8 30 -7 17 1 30 -1 30 -4
0 -3 14 -6 30 -6 17 0 30 4 30 9 0 5 7 3 15 -4 12 -10 15 -10 15 0 0 9 3 10
13 1 10 -8 17 -7 25 1 9 9 12 9 12 -1 0 -7 5 -9 10 -6 6 4 18 1 27 -7 14 -11
16 -11 8 2 -7 12 -6 13 6 3 12 -10 18 -10 27 -1 9 9 12 9 12 -1 0 -10 3 -11
14 -2 10 8 16 9 21 1 3 -5 14 -7 23 -2 15 6 49 8 62 2 22 -11 145 -14 160 -5
8 5 11 4 7 -1 -3 -6 28 -9 79 -8 46 1 84 -1 84 -5 0 -4 7 -8 15 -8 8 0 15 5
15 11 0 7 3 7 8 1 11 -15 32 -17 32 -2 0 9 2 9 9 -1 11 -17 21 -17 32 0 5 7 9
8 9 2 0 -6 13 -11 30 -11 16 0 27 5 23 10 -4 6 -1 7 8 2 20 -13 49 -13 49 -1
0 6 4 5 9 -2 4 -8 19 -11 34 -8 15 2 29 1 31 -3 3 -4 31 -6 63 -4 40 2 53 -1
43 -7 -9 -6 -10 -10 -3 -10 6 0 14 4 17 9 3 5 22 9 41 9 24 0 33 -4 28 -11 -5
-9 -3 -9 8 -1 8 7 39 11 69 10 30 -1 63 2 73 7 12 5 19 3 23 -8 5 -11 10 -13
19 -5 8 7 15 7 19 1 7 -10 24 -10 42 2 6 3 14 3 18 0 12 -12 40 -12 48 0 5 7
8 8 8 1 0 -12 104 -13 116 -2 4 4 13 3 19 -2 13 -11 42 -9 61 3 6 3 14 3 18 0
4 -4 20 -8 36 -9 21 -2 28 1 23 9 -4 7 1 5 12 -3 10 -8 19 -15 20 -15 1 0 10
7 20 15 11 8 16 10 12 3 -5 -8 0 -11 13 -10 11 1 20 6 20 12 0 5 4 5 8 -2 8
-12 29 -13 49 0 6 4 14 3 18 -2 7 -13 45 -10 45 4 0 5 4 4 9 -4 6 -9 26 -14
55 -14 30 0 43 -3 39 -11 -5 -7 -2 -7 8 1 8 6 31 10 52 9 21 -2 40 1 43 6 3 5
11 5 17 0 7 -5 20 -8 31 -6 10 1 30 -2 44 -7 21 -8 23 -8 13 5 -11 13 -9 14
16 7 15 -4 45 -6 66 -5 28 3 36 0 31 -9 -6 -9 -5 -9 7 0 8 6 31 10 52 9 21 -2
40 1 43 6 3 5 11 5 17 0 7 -5 20 -8 31 -6 10 1 30 -2 44 -7 21 -8 23 -8 13 5
-11 13 -9 14 16 7 15 -4 45 -6 66 -5 28 3 36 0 31 -9 -6 -9 -5 -9 7 0 8 6 31
10 52 9 21 -2 40 1 43 6 3 5 11 5 17 0 7 -5 20 -8 31 -6 10 1 30 -2 44 -7 21
-8 23 -8 13 5 -11 13 -9 14 16 8 25 -7 91 -7 163 0 14 2 28 8 32 13 5 6 8 5 8
-2 0 -7 5 -13 11 -13 5 0 7 6 3 13 -5 7 0 6 11 -3 10 -8 19 -15 20 -15 1 0 10
7 20 15 11 8 16 10 12 4 -4 -7 3 -12 18 -11 14 0 28 4 31 8 3 5 11 6 17 2 18
-11 36 -12 43 -2 3 5 11 6 17 2 20 -13 41 -12 49 0 5 7 8 8 8 1 0 -12 104 -13
116 -2 4 4 13 3 19 -2 13 -11 42 -9 62 3 6 4 14 3 18 -3 3 -5 11 -10 16 -10 6
0 7 5 3 12 -5 7 -3 8 7 2 22 -13 43 -14 51 -1 6 9 8 9 8 -1 0 -8 5 -10 13 -5
22 14 47 13 47 -1 0 -8 -10 -16 -23 -20 -35 -8 -113 -81 -156 -145 -35 -53
-79 -144 -132 -275 l-24 -58 -53 6 c-66 8 -108 29 -117 57 -13 39 -7 96 13
136 18 35 76 81 95 75 11 -3 61 24 75 41 9 11 8 18 -7 31 -18 16 -21 16 -50 1
-17 -8 -31 -13 -31 -10 0 4 -27 -8 -60 -26 -114 -61 -167 -149 -135 -226 30
-71 95 -123 183 -146 l52 -13 -38 -62 -37 -63 -110 -3 c-136 -4 -202 -26 -262
-88 -51 -53 -59 -78 -38 -118 l16 -30 -181 0 -180 0 17 35 c9 19 25 37 34 40
25 8 71 63 114 136 32 56 35 64 21 77 -14 14 -17 14 -35 -3 -11 -9 -19 -21
-16 -25 5 -8 -47 -94 -63 -103 -5 -4 -9 27 -9 77 1 88 -10 116 -43 116 -22 0
-39 -20 -83 -102 -39 -71 -86 -118 -118 -118 -74 0 70 232 158 255 20 5 32 0
53 -20 26 -25 27 -25 43 -7 16 17 16 20 -6 39 -49 45 -108 55 -170 29 -45 -19
-130 -112 -165 -182 -31 -62 -82 -124 -101 -124 -19 0 -3 50 55 164 48 94 54
111 41 123 -12 13 -19 12 -52 -1 -21 -9 -60 -30 -87 -46 -38 -24 -47 -26 -39
-12 5 10 17 24 26 32 21 18 2 40 -35 40 -36 0 -70 -40 -141 -167 -59 -103 -90
-139 -113 -130 -19 8 -13 30 48 166 51 114 50 131 -8 131 -37 0 -56 -15 -56
-46 0 -12 -23 -68 -51 -124 -43 -85 -56 -104 -84 -116 -55 -23 -75 -3 -75 73
0 27 5 33 37 44 46 15 119 81 127 116 14 52 -49 80 -120 53 -15 -6 -45 -25
-68 -43 l-41 -32 34 60 c45 81 119 192 154 232 24 27 27 36 17 48 -40 49 -106
-10 -201 -179 -196 -351 -228 -398 -256 -375 -12 10 -10 16 11 38 41 44 70
110 70 163 1 45 -3 53 -36 84 -58 52 -97 44 -184 -38 -34 -32 -74 -85 -102
-137 -46 -83 -81 -119 -102 -106 -6 4 3 22 24 47 37 43 66 113 66 161 0 37
-66 107 -102 107 -33 0 -107 -49 -152 -101 -21 -24 -58 -78 -81 -119 -75 -133
-183 -186 -358 -178 -162 8 -209 53 -209 204 1 72 10 121 39 205 l16 46 39
-43 c100 -109 292 -140 447 -73 74 31 166 132 179 196 19 84 -9 151 -86 210
-58 45 -90 55 -193 61 -135 7 -235 -27 -325 -110 -51 -47 -59 -40 -52 47 4 45
1 58 -14 72 -18 16 -20 16 -40 -4 -24 -25 -35 -132 -21 -198 8 -36 6 -45 -24
-91 -56 -84 -83 -175 -83 -279 0 -115 23 -168 104 -243 l58 -52 -103 0 c-56 0
-99 -3 -96 -7 4 -3 55 -6 114 -5 70 1 112 -3 122 -11 23 -19 243 -23 280 -4
25 13 149 15 890 14 l860 0 -39 -28 c-76 -55 -95 -119 -49 -165 31 -30 81 -40
136 -25 58 16 154 91 205 161 l43 58 190 -1 c168 0 194 -3 225 -20 37 -21 121
-26 143 -10 26 21 68 26 256 29 l195 2 -46 -39 c-27 -23 -51 -54 -58 -75 -11
-32 -10 -40 7 -63 11 -14 31 -32 44 -39 33 -17 107 -10 160 16 41 20 44 21 62
4 18 -16 20 -15 48 16 21 23 29 43 29 68 0 25 9 48 30 74 l29 37 566 0 c311 1
569 3 572 7 4 3 -246 6 -555 6 -309 0 -562 4 -562 8 0 5 19 15 42 23 97 32
226 201 237 312 1 10 33 9 49 -2 10 -6 4 -25 -27 -85 -46 -87 -50 -121 -20
-160 28 -35 69 -34 111 3 l32 28 24 -28 c34 -41 77 -39 127 4 l39 34 31 -33
c43 -45 93 -53 158 -25 46 19 52 19 68 5 19 -17 39 -19 132 -16 52 2 61 6 103
44 57 52 110 151 90 167 -15 13 -40 -12 -79 -80 -24 -42 -57 -80 -57 -65 0 4
7 18 16 31 20 30 15 77 -15 158 -25 68 -20 107 14 107 30 0 49 22 33 38 -20
20 -65 14 -96 -13 -17 -14 -51 -67 -78 -118 -26 -50 -60 -107 -76 -125 -15
-18 -28 -41 -28 -51 0 -17 -16 -27 -72 -44 -9 -3 -24 0 -33 7 -57 41 41 256
116 256 18 0 19 -2 4 -37 -13 -31 -13 -39 -2 -50 12 -12 19 -10 45 12 82 69 1
164 -105 124 -45 -17 -91 -67 -150 -166 -62 -104 -94 -143 -119 -143 -22 0
-14 28 46 165 41 93 47 112 35 124 -29 30 -95 9 -95 -30 0 -50 -113 -249 -142
-249 -14 0 -3 33 49 144 55 116 52 131 -21 131 -25 0 -45 2 -43 5 29 51 31 62
16 88 -18 33 -50 39 -71 15 -9 -10 -23 -47 -32 -82 -9 -35 -22 -74 -29 -86 -6
-12 -25 -46 -41 -76 -48 -89 -78 -130 -109 -146 -24 -12 -29 -12 -25 -2 3 8
22 60 43 117 21 57 48 118 60 137 22 32 22 34 6 49 -26 23 -74 20 -98 -7 -11
-12 -39 -57 -62 -99 -48 -88 -126 -198 -141 -198 -24 0 -6 61 46 159 31 58 63
113 71 123 12 13 12 18 1 24 -16 10 -79 5 -95 -8 -17 -14 -94 -158 -92 -172 1
-6 -5 -28 -14 -48 -22 -50 -21 -67 6 -97 l22 -25 -30 21 c-46 31 -144 78 -205
98 -30 10 -56 19 -58 20 -1 1 17 37 40 79 43 77 43 77 108 99 86 29 164 83
242 165 73 78 117 162 125 238 6 52 5 55 -34 94 -33 32 -48 40 -77 40 -20 0
-36 5 -36 11 0 6 8 9 19 6 10 -2 25 0 34 4 9 5 18 6 20 1 3 -4 38 -7 79 -6 46
2 76 -2 80 -9 6 -9 8 -9 8 1 0 9 13 11 45 8 25 -2 43 -1 41 3 -3 4 20 6 49 6
33 -1 52 2 48 8 -4 6 -1 7 8 2 20 -13 49 -13 49 -1 0 7 3 8 8 1 10 -14 64 -16
55 -2 -4 6 -1 7 8 2 20 -13 49 -13 49 -1 0 6 4 5 9 -3 6 -9 14 -10 27 -3 11 5
76 9 146 9 95 0 131 3 144 14 9 8 18 13 18 12 1 -1 13 -6 29 -12 20 -8 27 -7
27 2 0 8 3 7 9 -2 7 -10 14 -12 23 -5 15 11 38 11 55 1 6 -4 14 -4 17 1 2 4
25 7 50 7 25 0 46 5 46 10 0 6 4 5 8 -2 5 -8 13 -9 22 -3 8 5 21 5 32 -1 13
-7 18 -6 18 3 0 9 3 9 10 -2 9 -13 11 -13 20 0 5 8 10 12 10 8 0 -4 11 -3 25
2 14 5 25 6 25 1 0 -10 31 -8 49 4 10 6 12 4 6 -6 -8 -12 -6 -12 8 0 14 11 17
11 17 0 0 -12 2 -12 9 0 7 11 9 11 14 0 4 -9 8 -11 14 -4 4 6 15 10 23 10 8 0
19 4 23 10 6 7 10 5 14 -4 5 -11 7 -11 14 0 5 8 9 9 9 3 0 -7 15 -9 45 -4 25
4 45 5 45 2 0 -2 7 1 15 8 8 7 15 8 15 3 0 -11 29 -11 48 1 6 4 12 3 12 -3 0
-7 8 -7 23 -2 12 5 43 8 70 7 26 0 47 1 47 4 0 3 34 5 75 5 73 0 124 16 91 28
-8 3 -17 1 -20 -6 -3 -8 -5 -8 -5 2 -1 11 -4 11 -16 1 -9 -7 -15 -8 -15 -2 0
12 -18 11 -39 -2 -9 -6 -12 -5 -7 2 4 6 -1 11 -11 11 -10 0 -33 2 -51 5 -18 3
-30 1 -27 -4 6 -10 -14 -8 -32 3 -7 5 -17 6 -22 2 -5 -3 -13 -1 -16 5 -5 8
-11 8 -20 0 -9 -8 -15 -8 -20 0 -3 5 -13 10 -21 10 -8 0 -12 -4 -9 -10 4 -6
-4 -6 -21 0 -15 6 -33 9 -40 6 -8 -3 -15 -2 -18 2 -6 10 -101 6 -118 -4 -9 -5
-9 -3 1 9 13 16 12 17 -13 7 -16 -6 -25 -6 -21 -1 7 12 -36 11 -52 -1 -6 -5
-14 -5 -17 1 -4 6 -14 7 -23 4 -12 -5 -14 -3 -9 8 4 8 0 5 -8 -5 -9 -11 -16
-15 -16 -9 0 9 -31 14 -82 14 -10 0 -20 4 -23 9 -4 6 -14 4 -25 -2 -15 -10
-22 -10 -31 -1 -9 9 -18 9 -32 2 -14 -8 -18 -8 -13 0 4 6 3 11 -2 11 -5 0 -9
13 -9 30 0 16 5 27 10 23 6 -4 7 -1 2 8 -13 20 -13 49 -1 49 7 0 7 3 1 8 -15
11 -17 39 -4 63 8 15 8 19 0 15 -6 -4 -11 -3 -11 3 0 5 5 13 10 16 6 4 8 11 4
16 -12 19 -13 70 -2 63 7 -5 8 -2 3 7 -13 20 -13 49 -1 49 7 0 7 3 1 8 -15 11
-17 39 -4 63 8 15 8 19 0 15 -6 -4 -11 -3 -11 3 0 5 5 13 10 16 6 4 8 11 4 16
-12 19 -13 70 -2 63 7 -5 8 -2 3 7 -13 20 -13 49 -1 49 7 0 7 3 1 8 -15 11
-17 39 -4 63 8 15 8 19 0 15 -6 -4 -11 -3 -11 3 0 5 5 13 10 16 6 4 8 11 4 16
-12 19 -13 70 -2 63 7 -5 8 -2 3 7 -13 20 -13 49 -1 49 7 0 7 3 1 8 -15 11
-17 39 -4 63 8 15 8 19 0 15 -6 -4 -11 -3 -11 3 0 5 5 13 10 16 6 4 8 11 4 16
-12 19 -13 70 -2 63 7 -5 8 -2 3 7 -13 20 -13 49 -1 49 7 0 8 3 1 8 -14 10
-16 64 -2 55 6 -4 7 -1 2 8 -13 20 -13 49 -1 49 7 0 7 3 1 8 -15 10 -18 42 -4
42 8 0 7 5 -2 17 -12 14 -12 16 0 8 10 -5 12 -4 7 4 -13 21 -16 72 -4 65 7 -5
8 -2 3 7 -13 20 -13 49 -1 49 7 0 7 3 1 8 -15 11 -17 39 -4 63 8 15 8 19 0 15
-6 -4 -11 -3 -11 3 0 5 5 13 10 16 6 4 8 11 4 16 -12 19 -13 70 -2 63 7 -5 8
-2 3 7 -13 20 -13 49 -1 49 7 0 7 3 1 8 -15 11 -17 39 -4 63 8 15 8 19 0 15
-6 -4 -11 -3 -11 3 0 5 5 13 10 16 6 4 8 11 4 16 -12 19 -13 70 -2 63 7 -5 8
-2 3 7 -13 20 -13 49 -1 49 7 0 7 3 1 8 -15 11 -17 39 -4 63 8 15 8 19 0 15
-6 -4 -11 -3 -11 3 0 5 5 13 10 16 6 4 8 11 4 16 -12 19 -13 70 -2 63 7 -5 8
-2 3 7 -13 20 -13 49 -1 49 6 0 5 4 -3 9 -7 5 -10 14 -6 20 4 7 1 18 -5 26
-10 12 -10 15 1 15 10 0 10 3 2 11 -6 6 -9 18 -6 25 3 8 1 14 -5 14 -6 0 -9 8
-7 18 1 9 -2 23 -8 30 -5 7 -11 31 -14 54 -2 23 -8 45 -14 49 -6 3 -10 9 -10
13 4 25 0 36 -11 30 -7 -4 -8 -3 -4 5 4 6 2 18 -4 26 -7 8 -9 15 -6 15 4 0 0
7 -8 16 -9 8 -14 20 -11 25 4 5 1 9 -4 9 -6 0 -11 7 -11 15 0 9 -7 18 -15 21
-8 4 -12 10 -9 15 3 5 1 9 -5 9 -5 0 -12 8 -16 19 -8 27 -41 62 -50 53 -5 -4
-5 -2 -2 4 3 5 -10 28 -29 49 -19 21 -34 43 -34 47 0 5 -5 6 -10 3 -6 -3 -13
0 -16 8 -3 8 -15 17 -26 20 -11 3 -17 10 -14 16 6 10 -31 27 -49 22 -5 -1 -7
0 -3 4 8 9 -14 35 -24 28 -5 -2 -8 1 -8 7 0 6 -5 8 -10 5 -6 -3 -13 1 -16 9
-3 9 -10 13 -15 10 -5 -3 -9 0 -9 5 0 6 -9 11 -21 11 -11 0 -17 5 -14 10 5 9
-16 15 -38 11 -5 -1 -6 3 -2 9 3 5 -1 10 -9 10 -9 0 -16 5 -16 11 0 5 -4 7
-10 4 -5 -3 -10 -1 -10 5 0 6 -4 8 -10 5 -5 -3 -10 -1 -10 4 0 6 -9 11 -21 11
-13 0 -18 4 -13 12 5 7 2 9 -9 5 -9 -3 -18 0 -21 9 -3 8 -12 14 -21 14 -8 0
-15 5 -15 10 0 6 -9 10 -20 10 -11 0 -20 5 -20 10 0 6 -7 10 -15 10 -8 0 -15
5 -15 11 0 6 -7 9 -15 5 -9 -3 -15 0 -15 9 0 8 -9 15 -20 15 -11 0 -28 9 -37
19 -9 11 -20 18 -25 15 -4 -3 -11 2 -14 10 -3 9 -10 13 -16 10 -5 -3 -20 4
-33 16 -13 12 -28 19 -34 16 -5 -4 -15 3 -21 14 -6 11 -20 20 -30 20 -11 0
-20 5 -20 10 0 6 -7 10 -15 10 -8 0 -15 5 -15 10 0 6 -9 10 -20 10 -11 0 -20
4 -20 9 0 10 -39 27 -52 23 -5 -1 -8 5 -8 14 0 8 -4 12 -10 9 -5 -3 -17 3 -26
14 -9 10 -23 17 -30 14 -8 -3 -14 0 -14 6 0 6 -7 11 -15 11 -8 0 -15 5 -15 10
0 6 -11 10 -25 10 -17 0 -25 6 -25 17 0 9 -3 14 -6 10 -4 -3 -13 1 -21 9 -8 8
-19 12 -24 9 -5 -4 -9 -1 -9 4 0 6 -7 11 -15 11 -9 0 -18 6 -21 14 -3 8 -14
13 -25 11 -11 -2 -17 0 -15 4 3 4 -7 14 -22 22 -15 8 -30 18 -33 22 -3 4 -15
9 -27 10 -11 0 -19 4 -16 8 6 10 -26 20 -38 12 -7 -3 -8 -1 -4 5 4 7 2 12 -4
12 -6 0 -18 7 -27 15 -8 8 -18 13 -23 10 -4 -3 -11 2 -14 11 -3 8 -10 12 -16
9 -5 -3 -10 -1 -10 4 0 6 -3 10 -7 9 -5 -1 -18 3 -29 10 -12 6 -24 8 -28 5 -3
-3 -6 -1 -6 6 0 8 -6 11 -16 7 -8 -3 -12 -2 -9 4 3 6 -5 10 -19 10 -14 0 -26
5 -26 10 0 12 -22 9 -32 -5 -5 -6 -8 -3 -8 7 0 12 -6 15 -22 10 -13 -3 -19 -1
-15 5 4 6 -7 9 -29 8 -19 -1 -39 4 -45 12 -9 10 -16 10 -32 1 -16 -8 -22 -8
-25 0 -2 8 -9 9 -21 2 -12 -6 -24 -5 -37 3 -10 7 -32 11 -49 9z m-3 -267 c18
-2 26 1 21 9 -4 7 -1 7 7 -1 9 -8 19 -9 31 -3 11 6 20 6 23 1 3 -5 15 -7 26
-4 11 3 20 1 20 -5 0 -5 18 -10 41 -10 22 -1 47 -6 55 -13 11 -9 14 -9 14 0 0
8 6 7 16 -3 8 -9 20 -14 25 -11 5 4 9 1 9 -4 0 -6 9 -11 19 -11 11 0 21 -5 23
-10 2 -6 13 -12 25 -13 12 0 19 -5 17 -9 -3 -4 1 -8 9 -8 8 0 20 -7 27 -15 7
-8 16 -12 21 -9 5 3 12 -2 15 -10 3 -9 10 -14 14 -11 4 2 20 -7 34 -20 28 -26
42 -33 31 -15 -3 5 0 7 9 4 8 -3 17 -12 20 -20 3 -8 12 -14 21 -14 8 0 15 -5
15 -11 0 -6 6 -9 13 -6 8 3 20 -3 27 -13 8 -11 17 -17 21 -14 4 2 13 -2 21 -8
7 -7 34 -24 60 -37 26 -13 55 -31 65 -40 11 -9 25 -17 33 -19 8 -2 17 -8 18
-13 2 -5 9 -9 15 -9 6 0 19 -8 30 -17 13 -11 17 -13 12 -4 -5 8 7 3 27 -12 19
-15 40 -27 46 -27 7 0 12 -4 12 -8 0 -5 16 -14 35 -22 19 -8 35 -16 35 -19 0
-4 15 -13 33 -20 17 -8 38 -22 45 -30 11 -13 12 -13 6 -1 -7 13 -6 13 12 0 10
-8 24 -21 30 -29 6 -8 15 -11 21 -8 5 4 19 -2 30 -13 12 -10 24 -16 27 -13 3
4 6 1 6 -5 0 -7 10 -12 23 -12 16 0 18 -3 9 -9 -10 -6 -5 -10 16 -14 16 -3 36
-13 45 -21 8 -8 17 -12 21 -9 3 4 6 1 6 -6 0 -7 4 -9 10 -6 5 3 17 -3 27 -15
10 -11 23 -20 30 -20 6 0 18 -7 27 -15 8 -9 18 -16 21 -15 21 1 25 -1 19 -12
-4 -7 -3 -8 4 -4 7 4 27 -4 45 -18 19 -14 37 -23 40 -19 4 3 7 1 7 -5 0 -7 7
-12 15 -12 8 0 15 -7 15 -16 0 -11 5 -14 16 -10 11 4 18 -1 21 -14 5 -19 16
-25 38 -20 6 1 7 -1 4 -5 -9 -8 40 -61 53 -57 5 1 7 -2 4 -7 -4 -5 8 -27 26
-47 18 -21 26 -34 18 -30 -9 4 -8 2 2 -7 10 -8 15 -17 11 -20 -3 -4 -1 -7 6
-7 7 0 9 -4 6 -10 -3 -5 -1 -10 5 -10 6 0 8 -4 5 -10 -3 -5 -1 -10 5 -10 6 0
8 -4 5 -10 -3 -5 -1 -10 4 -10 6 0 11 -9 11 -20 0 -11 5 -20 12 -20 6 0 9 -3
5 -6 -3 -4 0 -19 9 -35 9 -19 11 -29 4 -29 -6 0 -4 -7 4 -16 9 -8 14 -20 10
-25 -3 -6 0 -17 8 -26 9 -12 9 -15 1 -9 -7 4 -13 2 -13 -3 0 -6 4 -11 8 -11
12 0 10 -94 -2 -102 -8 -6 -8 -8 0 -8 7 0 12 -17 11 -44 0 -27 -5 -43 -10 -39
-6 4 -7 1 -1 -8 14 -23 15 -52 2 -61 -9 -5 -9 -8 -2 -8 7 0 12 -17 11 -44 0
-29 -4 -43 -11 -39 -8 5 -8 3 0 -8 15 -20 16 -109 1 -109 -7 0 -6 -4 3 -10 13
-9 13 -11 0 -20 -8 -5 -10 -10 -4 -10 14 0 14 -92 -1 -102 -6 -5 -6 -8 2 -8
16 0 15 -90 -1 -90 -6 0 -4 -5 4 -10 13 -9 13 -11 0 -20 -8 -5 -10 -10 -4 -10
7 0 12 -17 11 -44 0 -27 -5 -43 -10 -39 -6 4 -7 1 -1 -8 14 -23 15 -52 2 -61
-9 -5 -9 -8 -2 -8 7 0 12 -17 11 -44 0 -29 -4 -43 -11 -39 -8 5 -8 3 0 -8 15
-20 16 -109 1 -109 -7 0 -6 -4 3 -10 13 -9 13 -11 0 -20 -8 -5 -10 -10 -4 -10
14 0 14 -92 -1 -102 -6 -5 -6 -8 2 -8 16 0 15 -90 -1 -90 -6 0 -4 -5 4 -10 13
-9 13 -11 0 -20 -8 -5 -10 -10 -4 -10 7 0 12 -17 11 -44 0 -27 -5 -43 -10 -39
-6 4 -7 1 -1 -8 14 -23 15 -52 2 -61 -9 -5 -9 -8 -2 -8 7 0 12 -17 11 -44 0
-29 -4 -43 -11 -39 -8 5 -8 3 0 -8 15 -20 16 -109 1 -109 -7 0 -6 -4 3 -10 13
-9 13 -11 0 -20 -8 -5 -10 -10 -4 -10 14 0 14 -92 -1 -102 -6 -5 -6 -8 2 -8
16 0 15 -90 -1 -90 -6 0 -4 -5 4 -10 13 -9 13 -11 0 -20 -9 -6 -10 -10 -3 -10
13 0 13 -77 0 -98 -7 -11 -12 -11 -25 0 -13 11 -14 11 -7 -1 6 -11 5 -12 -6
-5 -22 13 -81 15 -73 2 5 -7 2 -8 -7 -2 -20 12 -97 15 -105 3 -4 -6 -11 -6
-20 2 -7 6 -20 9 -28 6 -7 -3 -19 0 -26 6 -10 9 -11 9 -5 -1 6 -12 3 -12 -16
-1 -13 7 -28 12 -34 10 -25 -8 -42 -8 -64 1 -22 8 -23 7 -10 -8 13 -16 12 -16
-6 -7 -11 6 -30 9 -43 8 -13 -1 -25 2 -28 7 -3 4 -10 5 -17 1 -16 -10 -58 -10
-64 0 -2 4 -11 2 -20 -4 -12 -10 -16 -10 -23 1 -4 7 -15 10 -23 7 -8 -3 -20 0
-27 6 -10 9 -11 9 -6 0 9 -16 -35 -13 -46 2 -5 6 -8 6 -8 -1 0 -8 -13 -10 -36
-7 -29 4 -35 2 -28 -9 6 -11 5 -11 -9 1 -9 7 -26 11 -37 8 -11 -3 -23 -1 -26
5 -4 6 -9 5 -14 -3 -7 -10 -12 -10 -26 2 -11 9 -15 9 -10 2 9 -16 -35 -13 -46
2 -5 7 -8 6 -8 -1 0 -12 -71 -11 -91 1 -8 5 -10 4 -5 -3 4 -7 2 -12 -3 -12 -6
0 -11 5 -11 12 0 6 -3 8 -7 5 -3 -4 -12 -2 -20 4 -8 8 -13 8 -13 1 0 -6 -8 -9
-17 -7 -10 2 -18 4 -18 5 0 1 -10 3 -22 4 -13 2 -23 -1 -23 -6 0 -11 -23 -6
-32 7 -5 7 -8 6 -8 0 0 -14 -38 -17 -45 -4 -4 5 -12 6 -18 2 -20 -12 -37 -12
-37 0 0 8 -3 7 -9 -1 -11 -17 -21 -17 -32 0 -7 10 -9 10 -9 1 0 -15 -21 -13
-32 2 -5 6 -11 5 -17 -3 -11 -17 -21 -17 -32 0 -5 7 -9 8 -9 3 0 -14 -38 -17
-45 -4 -4 5 -12 6 -18 2 -20 -12 -37 -12 -37 0 0 8 -3 7 -9 -1 -11 -17 -21
-17 -32 0 -7 10 -9 10 -9 1 0 -15 -21 -13 -32 2 -5 6 -8 5 -8 -4 0 -10 -3 -11
-14 -2 -10 9 -16 9 -21 1 -5 -8 -11 -8 -19 -1 -7 6 -16 8 -20 4 -12 -12 -36
-12 -36 0 0 8 -3 7 -9 -1 -11 -17 -21 -17 -32 0 -7 11 -9 11 -9 -1 0 -10 -3
-11 -14 -2 -10 9 -16 9 -21 1 -5 -8 -11 -8 -19 -1 -7 6 -16 8 -20 4 -12 -12
-36 -12 -36 0 0 8 -3 7 -9 -1 -4 -8 -12 -14 -16 -14 -4 0 -12 6 -16 14 -7 11
-9 11 -9 -1 0 -10 -3 -11 -14 -2 -10 9 -16 9 -21 1 -5 -8 -11 -8 -19 -1 -7 6
-16 8 -20 4 -12 -12 -36 -12 -36 0 0 8 -3 7 -9 -1 -4 -8 -12 -14 -16 -14 -4 0
-12 6 -16 14 -7 11 -9 11 -9 -1 0 -10 -3 -11 -14 -2 -10 9 -16 9 -21 1 -5 -8
-11 -8 -19 -1 -7 6 -16 8 -20 4 -12 -12 -36 -12 -36 0 0 8 -3 7 -9 -1 -11 -17
-21 -17 -32 0 -7 11 -9 11 -9 -1 0 -10 -3 -11 -14 -2 -10 9 -16 9 -21 1 -5 -8
-11 -8 -19 -1 -7 6 -16 8 -20 4 -12 -12 -36 -12 -36 0 0 8 -3 7 -9 -1 -11 -17
-21 -17 -32 0 -7 11 -9 11 -9 -1 0 -10 -3 -11 -14 -2 -10 9 -16 9 -21 1 -5 -8
-11 -8 -19 -1 -7 6 -16 8 -20 4 -12 -12 -36 -12 -36 0 0 8 -3 7 -9 -1 -11 -17
-21 -17 -32 0 -7 11 -9 11 -9 -1 0 -10 -3 -11 -14 -2 -10 9 -16 9 -21 1 -5 -8
-11 -8 -19 -1 -7 6 -16 8 -20 4 -12 -12 -36 -12 -36 0 0 8 -3 7 -9 -1 -11 -17
-21 -17 -32 0 -7 11 -9 11 -9 -1 0 -10 -3 -11 -14 -2 -10 9 -16 9 -21 1 -5 -8
-11 -8 -19 -1 -7 6 -16 8 -20 4 -12 -12 -36 -12 -36 0 0 8 -3 7 -9 -1 -4 -8
-12 -14 -16 -14 -4 0 -12 6 -16 14 -8 11 -10 11 -18 0 -4 -8 -12 -14 -16 -14
-4 0 -12 6 -16 14 -5 7 -9 8 -9 3 0 -14 -38 -17 -45 -4 -4 5 -12 6 -18 2 -19
-12 -37 -12 -37 -1 0 7 -5 6 -14 -1 -10 -8 -16 -9 -21 -1 -3 6 -12 7 -18 3
-14 -9 -39 -12 -90 -13 -26 -1 -35 -5 -30 -13 4 -7 0 -6 -10 2 -9 7 -26 11
-37 8 -11 -3 -23 -1 -26 5 -4 6 -9 5 -14 -3 -7 -10 -12 -10 -26 2 -11 9 -15 9
-10 2 9 -16 -35 -13 -46 2 -5 6 -8 6 -8 -1 0 -8 -13 -10 -36 -7 -29 4 -35 2
-28 -9 6 -10 5 -11 -7 -2 -16 13 -109 17 -109 5 0 -9 -51 -8 -67 2 -6 4 -14 3
-17 -1 -4 -7 -39 -8 -56 -2 -3 1 -9 1 -15 0 -45 -9 -56 -10 -50 0 3 5 2 10 -3
10 -6 0 -9 20 -7 45 3 31 0 43 -7 39 -7 -5 -8 -2 -2 7 12 19 12 319 0 312 -5
-4 -6 -1 0 8 12 20 12 169 -1 169 -7 0 -7 3 0 8 13 9 16 104 4 96 -5 -3 -4 7
3 21 10 22 9 28 -3 36 -8 5 -9 9 -3 9 5 0 10 22 11 50 0 31 -4 47 -10 43 -6
-4 -7 -1 -1 8 12 21 14 120 1 112 -6 -4 -7 -1 -1 8 12 20 13 239 1 232 -6 -4
-7 -1 -1 8 12 20 13 239 1 232 -6 -4 -7 -1 -2 8 13 20 13 89 1 89 -8 0 -8 3
-1 8 13 9 16 104 4 96 -5 -3 -4 7 3 21 10 22 9 28 -3 36 -8 5 -9 9 -3 9 5 0
10 22 11 50 0 29 -4 47 -9 44 -6 -4 -6 1 0 12 5 11 8 56 7 102 -1 45 2 82 7
82 5 0 6 5 3 10 -3 6 0 10 7 10 9 0 9 3 2 8 -13 8 -13 81 0 101 7 11 6 12 -5
6 -11 -7 -12 -6 -2 6 6 8 13 26 15 39 2 14 7 31 11 38 5 6 5 17 2 22 -3 6 -1
10 5 10 6 0 8 5 5 10 -3 6 -1 10 4 10 6 0 11 9 11 20 0 11 7 23 15 26 8 4 12
10 9 15 -3 5 -1 9 3 9 5 0 9 9 10 19 1 11 11 29 22 40 12 12 21 26 21 33 0 6
7 18 15 27 8 9 28 31 45 49 16 18 30 30 30 26 0 -4 8 3 19 14 10 12 21 19 25
15 3 -3 6 -1 6 5 0 6 9 14 20 17 11 4 18 10 15 15 -3 4 7 11 20 14 14 4 24 10
21 14 -2 4 5 9 17 9 12 1 23 7 25 13 2 5 8 10 14 10 6 0 17 8 25 18 8 9 12 12
9 5 -5 -8 0 -8 18 0 13 7 22 15 20 18 -2 4 3 10 12 13 10 4 13 2 9 -7 -4 -6 0
-4 9 7 8 10 19 15 24 12 6 -3 12 1 16 9 3 8 12 15 19 15 8 0 20 7 27 15 7 8
16 12 21 9 5 -3 9 -1 9 3 0 5 17 17 38 28 20 10 49 27 63 37 14 9 29 15 33 11
3 -3 6 -1 6 5 0 7 7 12 15 12 8 0 15 3 15 8 0 10 60 43 70 37 4 -3 10 2 14 10
3 8 13 15 21 15 10 0 13 5 9 12 -4 6 -3 8 3 5 6 -4 23 3 39 16 16 12 29 20 29
18 0 -3 19 8 42 22 24 15 47 27 53 27 5 0 10 4 10 8 0 5 16 14 35 22 19 8 35
16 35 19 0 8 63 36 73 33 4 -1 7 2 7 7 0 5 9 13 20 16 11 4 17 11 14 17 -5 7
-2 8 5 4 7 -5 19 0 27 10 9 11 12 12 8 4 -7 -13 -6 -13 10 0 23 18 56 38 79
46 9 3 17 10 17 15 0 5 3 8 8 7 14 -3 42 14 36 23 -3 5 3 6 12 2 13 -5 15 -3
9 7 -5 9 -4 11 4 6 6 -4 24 2 40 13 16 12 32 21 35 21 3 0 15 8 26 18 11 9 24
17 28 17 24 2 62 17 58 24 -3 4 10 7 29 6 19 -1 32 2 29 7 -3 4 2 9 10 9 9 1
24 2 34 3 9 1 22 4 27 7 6 4 20 5 33 4 12 -1 22 2 22 7 0 5 5 6 12 2 6 -4 24
-8 40 -9z m1088 -3790 c0 -114 -111 -253 -253 -318 l-37 -17 41 78 c93 171
164 264 219 285 27 10 30 7 30 -28z m-3133 -40 c52 -22 71 -42 83 -87 22 -80
-22 -166 -105 -204 -138 -64 -333 -28 -391 72 l-26 44 22 30 c40 56 144 128
220 151 45 13 159 10 197 -6z m269 -480 c-15 -37 -19 -41 -45 -37 -38 5 -73
-37 -64 -79 4 -23 2 -29 -12 -29 -25 0 -13 57 28 140 24 49 41 69 67 83 l35
17 3 -26 c2 -15 -4 -46 -12 -69z m350 44 c-11 -66 -25 -87 -58 -85 -43 2 -76
-43 -60 -79 10 -22 9 -25 -9 -25 -20 0 -21 4 -15 41 10 62 62 157 98 179 41
24 52 17 44 -31z m375 13 c-11 -20 -42 -37 -84 -46 -36 -8 -67 -59 -67 -110 0
-32 7 -45 40 -78 37 -37 44 -40 80 -35 23 3 56 17 75 31 l34 26 26 -26 c22
-22 33 -26 65 -21 21 3 43 0 48 -5 20 -20 67 17 114 87 43 65 135 161 145 151
2 -2 -9 -28 -25 -57 -53 -96 -51 -143 8 -174 34 -18 70 -8 111 31 l26 25 31
-30 c50 -50 84 -44 156 30 l59 61 -7 -48 c-8 -59 -15 -67 -86 -89 -30 -10 -74
-26 -97 -36 -40 -18 -79 -19 -904 -17 l-862 3 49 32 c27 17 60 43 73 57 l24
25 34 -29 c37 -33 81 -39 123 -16 17 10 30 11 43 5 28 -15 95 -4 120 20 l23
21 29 -30 c33 -34 75 -39 121 -16 19 11 33 12 46 5 24 -13 70 -6 99 15 21 14
24 14 36 -4 16 -22 62 -27 81 -8 7 7 12 24 12 39 0 92 112 229 188 229 19 0
21 -3 13 -18z m3200 -92 c1 -62 -3 -86 -15 -98 -14 -14 -16 -13 -25 9 -17 46
-16 63 8 122 13 32 25 56 27 54 2 -2 5 -41 5 -87z m-1651 -125 c-60 -64 -215
-116 -248 -83 -50 50 55 105 202 107 l69 1 -23 -25z m285 -32 c28 -8 73 -27
100 -41 l50 -26 -30 -7 c-16 -4 -118 -7 -227 -8 l-196 -1 61 63 62 62 65 -13
c36 -7 88 -20 115 -29z m303 5 c-18 -27 -84 -46 -101 -29 -8 8 -5 11 14 12 41
1 61 7 78 23 22 23 26 20 9 -6z m-1373 -125 c-44 -69 -112 -123 -179 -141 -64
-18 -81 1 -51 58 24 45 137 101 219 108 l29 3 -18 -28z m1280 -10 c10 -27 -90
-117 -145 -131 -67 -17 -83 -2 -58 52 14 31 45 52 112 76 65 24 82 24 91 3z"/>
<path d="M3047 5624 c-1 -2 -20 -4 -41 -6 -20 -1 -40 -6 -42 -10 -3 -5 -10 -6
-15 -3 -5 4 -9 1 -9 -5 0 -6 -4 -8 -10 -5 -5 3 -10 2 -10 -4 0 -5 -10 -8 -21
-6 -12 3 -19 2 -16 -2 4 -3 -7 -13 -22 -22 -37 -20 -111 -88 -111 -101 0 -5
-4 -10 -10 -10 -5 0 -10 -6 -10 -14 0 -7 -7 -19 -15 -26 -8 -7 -15 -21 -15
-31 0 -11 -4 -19 -8 -19 -8 0 -10 -7 -14 -50 -1 -11 -5 -20 -8 -20 -3 0 -7
-10 -8 -22 -5 -55 -7 -1194 -3 -1203 3 -5 6 -14 7 -20 1 -5 5 -25 9 -44 3 -19
9 -39 13 -45 6 -10 8 -15 11 -34 0 -5 9 -17 19 -28 10 -10 18 -22 18 -25 -2
-11 62 -78 68 -72 3 4 6 -1 6 -10 0 -18 33 -40 44 -30 3 3 6 1 6 -6 0 -7 4
-10 9 -7 5 3 14 -1 21 -9 7 -8 20 -15 30 -15 9 0 20 -3 24 -7 7 -7 16 -9 86
-19 51 -8 100 -8 145 -2 49 8 105 29 105 40 0 6 3 9 6 5 17 -17 173 110 174
141 0 6 4 12 9 12 5 0 15 16 22 35 7 19 17 35 22 35 5 0 7 6 4 14 -3 8 -3 17
1 21 4 4 8 11 8 16 1 5 2 10 4 12 12 15 20 187 9 208 -7 13 -29 16 -134 16
-73 0 -128 -4 -132 -10 -3 -6 -7 -40 -8 -76 -1 -60 -21 -141 -35 -141 -3 0
-17 -10 -30 -22 -29 -26 -38 -29 -97 -33 -108 -6 -163 63 -167 210 -2 53 1 82
7 78 6 -3 7 -1 3 6 -13 20 -16 60 -6 66 6 4 7 12 3 18 -11 17 -10 236 1 230 5
-4 6 -1 2 6 -13 20 -16 60 -6 66 6 4 7 12 3 18 -11 17 -10 236 1 230 5 -4 6
-1 2 5 -13 21 -16 55 -5 68 5 7 6 14 2 17 -9 6 -8 156 2 227 3 25 6 51 7 58 1
6 5 12 10 12 4 0 8 6 8 13 1 18 48 49 79 52 15 1 32 5 38 8 13 8 84 -11 104
-29 9 -8 19 -11 22 -7 4 3 7 -1 7 -10 0 -8 6 -22 14 -30 21 -20 33 -74 32
-140 -1 -36 4 -63 11 -69 14 -11 218 -14 250 -4 17 5 19 16 17 94 -2 90 -4 99
-25 173 -22 77 -96 177 -169 229 -15 11 -30 17 -34 13 -3 -3 -6 -2 -6 3 0 9
-53 33 -90 41 -21 5 -169 11 -173 7z"/>
<path d="M3768 5603 c-6 -7 -7 -13 -3 -13 4 0 2 -7 -5 -15 -7 -9 -8 -15 -2
-15 12 0 10 -33 -3 -42 -6 -5 -5 -8 3 -8 10 0 10 -5 2 -20 -6 -11 -7 -20 -3
-20 5 0 8 -20 8 -45 0 -25 -4 -45 -9 -45 -5 0 -3 -6 3 -13 6 -8 8 -17 4 -20
-9 -9 -10 -68 -1 -73 4 -3 3 -15 -2 -28 -5 -13 -6 -27 -3 -30 10 -9 9 -76 -1
-76 -5 0 -4 -6 3 -13 8 -10 7 -17 -2 -26 -7 -7 -8 -14 -2 -19 13 -9 13 -35 0
-44 -6 -5 -5 -8 3 -8 10 0 10 -5 2 -20 -6 -11 -7 -20 -3 -20 5 0 8 -20 8 -45
0 -25 -4 -45 -9 -45 -5 0 -3 -6 3 -14 7 -8 8 -16 4 -19 -9 -6 -9 -64 0 -73 3
-3 2 -16 -3 -29 -5 -13 -6 -26 -3 -29 10 -9 9 -76 -1 -76 -5 0 -4 -6 3 -13 8
-10 7 -17 -2 -26 -7 -7 -8 -14 -2 -19 13 -9 13 -35 0 -44 -6 -5 -5 -8 3 -8 10
0 10 -5 2 -20 -7 -12 -7 -20 -1 -20 9 0 6 -45 -5 -62 -3 -4 -1 -8 4 -8 13 0
10 -33 -3 -42 -6 -5 -5 -8 3 -8 10 0 10 -5 2 -20 -6 -11 -7 -20 -3 -20 5 0 8
-20 8 -45 0 -25 -4 -45 -9 -45 -5 0 -3 -6 3 -14 7 -8 8 -16 4 -19 -9 -6 -9
-64 0 -73 3 -3 2 -16 -3 -29 -5 -13 -6 -26 -3 -29 10 -9 9 -76 -1 -76 -5 0 -4
-6 3 -13 8 -10 7 -17 -2 -26 -7 -7 -8 -14 -2 -19 13 -9 13 -35 0 -44 -6 -5 -5
-8 3 -8 10 0 10 -5 2 -20 -6 -11 -7 -20 -3 -20 5 0 8 -20 8 -45 0 -25 -4 -45
-9 -45 -5 0 -3 -6 3 -14 9 -10 9 -16 1 -21 -8 -5 -7 -12 4 -24 14 -16 50 -17
408 -16 216 0 398 3 404 7 12 8 12 243 0 255 -4 5 -125 8 -268 9 -213 0 -261
3 -269 15 -5 8 -4 15 1 17 6 2 7 8 4 14 -10 15 -11 68 -1 68 4 0 5 6 0 12 -10
17 -10 98 0 98 4 0 5 6 1 12 -12 19 -12 48 0 48 7 0 8 3 1 8 -12 8 -14 92 -2
92 5 0 5 6 1 12 -12 19 -12 48 0 48 7 0 8 3 1 8 -12 8 -14 92 -2 92 5 0 5 6 1
12 -12 19 -12 48 0 48 7 0 8 3 1 8 -12 8 -14 92 -2 92 5 0 5 6 1 12 -12 19
-12 48 0 48 7 0 7 3 1 8 -12 9 -14 62 -2 62 4 0 5 5 2 11 -11 16 -12 69 -3 69
5 0 4 9 -2 19 -7 14 -7 22 0 26 6 4 7 11 4 17 -10 15 -11 128 -1 128 4 0 5 6
0 13 -11 17 -10 41 2 49 6 5 5 8 -3 8 -9 0 -10 5 -3 19 6 10 8 21 5 24 -9 8
-10 97 -1 97 5 0 5 5 2 11 -11 16 -12 69 -2 69 4 0 5 6 0 12 -10 17 -10 98 0
98 4 0 5 6 0 13 -11 17 -10 41 2 49 6 5 6 8 -1 8 -6 0 -10 11 -9 24 2 15 -3
27 -13 32 -31 13 -243 10 -254 -3z"/>
<path d="M2737 2592 c-22 -24 -21 -55 1 -75 24 -22 34 -21 66 4 30 24 33 49 8
72 -24 22 -55 21 -75 -1z"/>
<path d="M5291 2584 c-26 -34 -26 -36 4 -64 21 -20 28 -22 50 -12 14 7 30 23
37 37 9 21 8 28 -7 45 -25 28 -60 25 -84 -6z"/>
<path d="M2890 1779 c0 -6 -6 -9 -14 -6 -8 3 -17 3 -20 -1 -11 -10 -36 -11
-36 -1 0 6 -8 6 -19 -1 -14 -7 -22 -7 -26 0 -5 8 -11 7 -21 -1 -11 -9 -14 -9
-14 1 0 10 -3 10 -14 1 -11 -9 -15 -9 -19 1 -4 10 -6 10 -6 -1 -1 -11 -4 -11
-16 -1 -8 7 -15 9 -15 4 0 -5 -11 -9 -25 -9 -14 0 -25 5 -25 10 0 6 -5 3 -10
-5 -9 -13 -11 -13 -20 0 -6 10 -10 11 -10 3 0 -9 -7 -10 -24 -3 -15 5 -27 5
-35 -3 -8 -8 -11 -7 -11 4 0 11 -2 11 -9 1 -4 -8 -12 -14 -16 -14 -4 0 -12 6
-16 14 -7 11 -9 11 -9 -1 0 -11 -3 -11 -15 -1 -8 7 -15 8 -15 3 0 -10 -46 -10
-57 0 -3 4 -12 2 -20 -4 -9 -9 -13 -8 -13 0 0 8 -5 9 -19 1 -14 -7 -22 -7 -26
0 -5 8 -11 7 -21 -1 -11 -9 -14 -9 -14 1 0 8 -4 9 -12 4 -7 -5 -22 -9 -33 -9
-11 0 -23 -4 -27 -10 -5 -6 -11 -5 -18 5 -9 13 -10 13 -10 0 0 -13 -1 -13 -10
0 -5 8 -10 11 -10 5 0 -6 -30 -10 -69 -10 -39 0 -67 4 -64 9 4 5 0 6 -8 1 -7
-5 -28 -8 -47 -7 -25 2 -32 -1 -26 -10 4 -7 -2 -5 -13 5 -16 14 -22 15 -25 5
-4 -11 -8 -10 -21 1 -13 10 -17 10 -17 1 0 -7 -7 -10 -15 -6 -8 3 -26 1 -39
-4 -15 -5 -27 -5 -35 3 -6 6 -11 7 -11 1 0 -5 -9 -10 -20 -11 -11 -1 -20 4
-20 10 0 8 -3 8 -8 2 -10 -13 -105 -14 -114 -1 -5 7 -8 7 -8 1 0 -5 -17 -10
-38 -11 -20 0 -52 -3 -70 -7 -18 -4 -31 -3 -28 1 3 5 -1 9 -9 9 -8 0 -12 -4
-9 -9 7 -11 -3 -10 -28 3 -15 8 -19 8 -14 0 4 -6 4 -11 1 -11 -4 0 -16 5 -27
11 -15 8 -19 8 -14 0 4 -6 4 -11 1 -11 -4 0 -16 5 -27 11 -15 8 -19 8 -13 0 4
-8 -2 -10 -21 -7 -15 3 -34 0 -41 -6 -10 -8 -13 -7 -13 2 0 9 -4 9 -12 3 -17
-13 -48 -13 -48 1 0 5 -7 1 -16 -10 -8 -10 -13 -13 -9 -6 5 9 -3 11 -29 8 -23
-3 -36 0 -36 7 0 8 -3 7 -9 -1 -11 -19 -15 -19 -33 -4 -12 10 -18 10 -27 -1
-8 -10 -27 -13 -62 -10 -40 3 -49 1 -43 -9 6 -10 4 -10 -7 -2 -17 12 -83 19
-76 7 7 -11 -54 -10 -72 1 -10 6 -12 5 -7 -3 10 -15 -65 -11 -76 4 -5 6 -8 5
-8 -4 0 -7 -6 -11 -15 -8 -8 4 -17 2 -20 -3 -5 -9 -37 -6 -54 5 -5 3 -13 0
-17 -6 -4 -7 -3 -9 4 -5 6 3 13 2 16 -3 5 -7 -22 -8 -31 -1 -9 7 -30 5 -42 -4
-11 -8 -13 -8 -7 2 4 6 3 12 -3 12 -5 0 -12 -4 -15 -9 -7 -11 -25 -9 -45 3
-10 6 -12 5 -7 -2 5 -8 0 -11 -16 -8 -13 2 -29 -2 -37 -8 -11 -8 -13 -8 -7 2
4 6 2 12 -3 12 -6 0 -11 -5 -11 -11 0 -8 -5 -8 -15 1 -9 7 -15 8 -15 2 0 -5
-16 -8 -35 -6 -24 2 -33 -1 -29 -8 5 -7 2 -8 -7 -3 -19 12 -49 14 -55 3 -3 -4
-10 -6 -15 -3 -5 4 -9 -1 -9 -9 0 -9 9 -16 21 -16 13 0 18 -4 13 -12 -4 -7 -3
-8 5 -4 20 13 61 17 61 6 0 -8 6 -7 20 0 11 6 20 7 20 2 0 -5 17 -9 38 -9 21
0 43 -3 50 -7 7 -4 12 -3 12 1 0 5 9 9 20 9 11 0 20 -3 20 -7 0 -4 9 -5 20 -2
13 3 20 0 20 -8 0 -9 3 -10 8 -4 8 12 42 16 42 6 0 -4 7 -8 15 -8 8 0 15 5 15
10 0 5 6 5 13 -2 10 -8 17 -7 25 1 9 9 12 9 12 -1 0 -7 4 -10 9 -7 5 4 12 0
14 -6 4 -9 6 -9 6 -2 1 8 12 9 36 4 24 -5 35 -4 35 4 0 6 5 4 10 -4 7 -11 10
-11 10 -2 0 10 5 10 20 2 15 -8 20 -8 20 2 0 9 3 10 8 2 4 -6 15 -10 25 -8 9
1 17 -1 17 -6 0 -10 20 -8 39 4 8 5 17 3 22 -5 8 -12 11 -12 19 1 9 13 11 13
20 0 9 -13 10 -13 10 0 0 9 3 11 8 5 8 -11 23 -12 185 -15 69 -2 107 -6 107
-13 0 -8 3 -8 11 0 7 7 20 8 34 3 12 -4 28 -4 35 0 9 5 20 4 27 -2 9 -7 13 -7
13 2 0 10 3 10 14 1 11 -9 15 -9 19 1 4 11 6 10 6 0 1 -7 5 -11 10 -7 12 7 34
-30 39 -65 2 -14 7 -26 12 -28 5 -2 6 -10 3 -18 -3 -8 0 -20 6 -28 6 -7 8 -16
4 -19 -3 -4 -1 -7 5 -7 7 0 12 -7 12 -15 0 -9 7 -27 16 -40 9 -14 12 -25 8
-25 -5 0 -4 -4 1 -8 6 -4 18 -24 28 -45 9 -21 21 -36 25 -33 4 2 9 -5 9 -17 1
-12 9 -27 18 -33 8 -6 15 -16 15 -23 0 -6 9 -16 20 -23 11 -7 20 -19 20 -26 0
-7 5 -10 10 -7 6 3 10 -1 10 -9 0 -9 5 -16 11 -16 5 0 7 -4 4 -10 -3 -5 0 -10
7 -10 7 0 19 -9 26 -20 7 -11 19 -20 28 -20 8 0 13 -3 11 -7 -3 -5 1 -13 8
-20 11 -10 15 -10 18 0 4 8 6 7 7 -3 1 -15 118 -96 133 -92 4 1 7 -3 7 -9 0
-5 5 -7 10 -4 6 3 10 2 10 -4 0 -6 11 -13 25 -17 14 -3 25 -10 25 -15 0 -5 6
-9 14 -9 8 0 22 -7 30 -16 9 -8 16 -13 16 -9 0 3 10 -3 22 -15 12 -11 30 -20
39 -20 10 0 23 -8 28 -17 6 -10 11 -14 11 -9 0 5 12 -1 27 -15 21 -18 24 -19
13 -4 -8 12 -2 9 16 -7 17 -16 38 -28 47 -28 9 0 17 -4 17 -10 0 -5 6 -10 13
-10 8 0 22 -9 32 -20 10 -11 24 -20 32 -20 14 0 75 -39 81 -52 2 -4 9 -5 16
-2 8 3 16 -2 19 -10 4 -9 15 -16 25 -16 10 0 27 -9 37 -20 10 -12 25 -18 32
-15 8 2 11 0 8 -5 -6 -9 7 -14 21 -7 3 1 10 -6 15 -15 6 -10 16 -18 23 -18 7
0 26 -10 42 -22 16 -13 25 -16 20 -8 -4 8 -1 7 8 -4 8 -10 19 -15 25 -11 6 3
11 -1 11 -9 0 -8 5 -18 12 -22 7 -5 9 -2 4 7 -4 8 -2 7 6 -2 14 -17 15 -17 48
-26 11 -3 20 -9 20 -14 0 -5 9 -9 21 -9 11 0 17 -4 14 -10 -3 -5 1 -10 10 -10
9 0 23 -7 32 -15 8 -8 19 -13 24 -10 5 4 9 1 9 -4 0 -6 7 -11 15 -11 8 0 15
-4 15 -10 0 -5 7 -10 16 -10 8 0 12 -4 9 -10 -3 -5 0 -7 7 -5 8 3 23 -4 35
-15 14 -12 28 -17 39 -13 10 3 15 2 12 -3 -3 -5 8 -20 25 -34 17 -14 28 -19
24 -12 -5 6 -4 12 2 12 5 0 11 -3 13 -7 6 -14 68 -44 77 -39 5 3 12 -1 15 -10
3 -8 11 -12 16 -9 6 4 17 2 24 -4 7 -6 21 -12 32 -14 10 -1 25 -6 32 -10 7 -5
12 -3 12 3 0 7 6 6 14 -3 8 -8 26 -13 40 -12 14 2 26 -1 26 -7 0 -6 6 -5 15 2
12 10 15 10 15 0 0 -8 3 -11 6 -8 3 4 18 2 34 -2 20 -6 30 -5 34 3 2 7 5 8 5
2 1 -5 20 -9 43 -8 24 1 62 3 86 4 23 1 42 6 42 13 0 6 4 5 9 -3 6 -9 11 -10
15 -3 4 6 14 8 23 5 9 -4 14 -2 11 3 -4 5 9 9 28 8 19 -1 34 2 34 6 0 5 9 7
20 5 11 -2 22 1 25 6 4 5 11 7 16 4 5 -4 9 -1 9 5 0 7 7 10 15 6 8 -3 15 0 15
6 0 6 3 8 7 5 3 -4 12 -2 20 4 7 6 13 8 13 3 0 -4 7 1 15 12 8 10 15 14 15 7
0 -7 7 -10 15 -7 8 3 13 10 12 16 -1 6 6 12 17 13 10 2 23 8 29 14 6 6 19 11
29 11 9 0 21 7 26 16 5 8 16 16 26 18 10 1 22 9 27 17 5 8 9 10 9 5 0 -6 7 -1
16 10 8 10 13 12 9 4 -4 -10 -2 -9 8 2 8 10 17 15 20 11 4 -3 7 -1 7 6 0 7 5
9 10 6 6 -3 10 -1 10 5 0 6 5 8 10 5 6 -3 10 -2 10 3 0 5 9 12 21 15 13 4 18
10 13 18 -4 8 -3 10 5 5 6 -4 18 -2 26 4 8 7 15 9 15 5 0 -5 8 1 18 11 9 10
24 20 32 22 8 2 17 8 18 13 2 5 8 7 13 3 5 -3 9 0 9 5 0 6 7 11 16 11 8 0 12
4 9 10 -3 5 0 7 7 5 8 -3 24 4 36 15 12 11 22 18 22 15 0 -4 14 3 30 15 17 12
30 18 30 13 0 -4 5 0 11 10 6 9 14 15 20 12 5 -4 9 -1 9 5 0 6 4 9 9 6 5 -3
14 1 21 9 7 8 18 15 25 15 7 0 16 7 19 16 3 8 10 13 15 10 4 -3 19 3 31 14 21
18 28 21 46 19 3 0 11 7 18 17 7 9 18 14 24 10 7 -4 12 -1 12 8 0 10 6 13 17
9 11 -4 14 -3 9 5 -4 7 -1 12 8 12 9 0 16 5 16 10 0 6 3 10 8 9 15 -2 52 14
52 23 0 6 7 7 16 4 9 -3 12 -2 9 5 -4 6 2 13 14 16 12 3 21 9 21 14 0 4 9 6
20 4 11 -2 18 -1 16 4 -3 4 23 22 57 41 34 19 68 41 75 49 10 12 11 12 6 2 -5
-10 3 -8 22 5 16 12 37 24 47 27 10 4 15 12 12 17 -4 6 -3 10 2 9 20 -3 34 2
28 11 -3 5 0 8 7 5 11 -4 27 5 85 55 7 5 17 10 23 10 6 0 8 5 5 11 -4 6 2 13
14 16 11 3 19 9 16 13 -3 5 4 11 15 15 11 4 18 11 15 16 -4 5 1 9 10 9 9 0 13
5 10 10 -3 6 -2 10 4 10 5 0 13 9 16 20 4 11 10 18 15 15 5 -3 11 4 15 15 3
11 11 20 16 20 6 0 7 5 4 10 -3 6 -1 10 4 10 6 0 11 5 11 11 0 6 9 22 20 36
11 14 17 29 14 34 -3 5 2 9 10 9 9 0 16 5 16 11 0 5 -6 7 -12 4 -7 -4 -5 0 6
9 10 8 15 19 12 24 -3 6 1 13 10 16 9 4 14 9 11 13 -4 3 -2 12 4 20 6 7 8 13
4 13 -4 0 -2 7 5 15 6 8 9 18 6 24 -3 5 -1 11 4 13 6 2 12 20 13 40 1 20 6 34
11 30 5 -3 7 2 3 11 -3 10 -2 17 4 17 6 0 7 5 4 10 -3 6 1 13 9 16 9 3 14 9
12 13 -2 3 7 6 20 6 13 0 24 -3 24 -7 0 -8 21 -5 39 6 8 5 16 4 21 -4 5 -8 13
-9 26 -2 11 5 31 9 47 8 15 -1 27 3 27 9 0 5 5 3 10 -5 5 -8 10 -10 10 -4 0 8
13 9 40 4 27 -5 40 -4 40 4 0 6 5 4 10 -4 8 -12 10 -12 10 -1 0 8 3 11 7 8 3
-4 12 -2 20 4 9 9 13 8 13 0 0 -8 5 -9 19 -1 14 7 22 7 26 0 5 -8 11 -7 21 1
11 9 14 8 14 -2 0 -12 2 -12 9 0 6 10 10 10 16 1 6 -9 9 -9 15 0 4 7 34 11 74
11 38 0 80 5 94 10 18 7 28 7 30 0 2 -6 8 -11 13 -11 6 0 8 3 6 8 -3 4 6 8 19
8 13 1 24 -2 24 -7 0 -6 9 -5 20 1 11 6 26 10 33 9 40 -5 96 3 100 14 4 11
-10 13 -64 11 -39 -1 -69 2 -69 7 0 6 -9 5 -21 -2 -13 -6 -19 -7 -15 -1 7 12
-42 10 -63 -2 -10 -7 -12 -5 -6 4 5 8 3 11 -6 8 -8 -3 -23 2 -33 11 -11 9 -16
11 -12 4 5 -9 -5 -11 -39 -9 -26 2 -45 -1 -45 -7 0 -6 -7 -2 -16 9 -8 10 -12
12 -8 4 6 -12 5 -13 -7 -3 -12 10 -18 10 -29 0 -9 -9 -11 -9 -6 0 8 15 -33 14
-53 -1 -11 -8 -13 -8 -7 2 9 16 -6 16 -23 0 -11 -11 -12 -10 -6 1 6 11 4 13
-8 8 -10 -3 -17 -3 -17 1 0 4 -23 8 -50 9 -36 1 -48 -2 -43 -10 5 -9 3 -9 -8
0 -18 14 -61 13 -71 -2 -5 -6 -8 -4 -8 5 0 12 -11 15 -44 15 -24 0 -47 -3 -51
-6 -11 -11 -45 2 -38 15 5 8 3 8 -8 0 -8 -6 -23 -9 -34 -7 -11 3 -32 5 -47 5
-17 0 -25 5 -21 11 4 6 1 7 -8 1 -19 -12 -33 -12 -41 1 -5 7 -8 7 -8 0 0 -12
-69 -13 -87 -2 -6 4 -15 2 -18 -3 -5 -8 -14 -5 -28 7 -11 10 -17 12 -13 6 9
-16 1 -16 -26 -2 -11 6 -18 7 -14 1 6 -11 -84 -9 -102 2 -7 4 -12 3 -12 -2 0
-10 -30 -9 -48 2 -7 4 -12 2 -12 -5 0 -8 -4 -8 -12 -2 -7 6 -39 10 -70 9 -32
-2 -54 2 -51 7 3 5 -4 4 -16 -2 -16 -9 -21 -9 -21 1 0 8 -3 9 -8 3 -11 -15
-42 -18 -42 -3 0 8 -3 9 -8 3 -8 -12 -92 -15 -92 -3 0 4 -13 6 -30 4 -16 -2
-31 2 -34 8 -3 7 -5 7 -5 0 -1 -6 -21 -9 -52 -7 -40 3 -49 1 -43 -9 6 -10 5
-10 -7 -2 -8 6 -59 12 -119 12 -90 1 -172 7 -190 13 -16 5 -37 3 -47 -5 -9 -5
-13 -4 -13 5 0 12 -2 12 -9 1 -11 -17 -21 -17 -32 0 -7 11 -9 11 -9 -1 0 -11
-3 -11 -15 -1 -8 7 -15 8 -15 3 0 -10 -46 -10 -57 0 -3 4 -12 2 -20 -4 -9 -9
-13 -8 -13 0 0 8 -5 9 -19 1 -14 -7 -22 -7 -26 0 -5 8 -11 7 -21 -1 -11 -9
-14 -9 -14 1 0 10 -3 10 -14 1 -11 -9 -15 -9 -19 1 -4 10 -6 10 -6 -1 -1 -11
-4 -11 -16 -1 -8 7 -15 9 -15 4 0 -5 -11 -9 -25 -9 -14 0 -25 5 -25 10 0 6 -5
3 -10 -5 -9 -13 -11 -13 -20 0 -8 12 -10 12 -10 1 0 -11 -3 -11 -15 -1 -8 7
-15 8 -15 3 0 -5 -12 -8 -27 -7 -16 1 -28 3 -28 4 0 2 -37 11 -60 14 -11 1
-30 -1 -41 -5 -13 -4 -26 -3 -33 4 -8 8 -11 8 -11 0 0 -13 -32 -12 -42 2 -5 7
-8 7 -8 0 0 -11 -71 -12 -89 -1 -6 4 -11 2 -11 -5 0 -8 -4 -8 -15 1 -8 7 -15
8 -15 3 0 -5 -9 -9 -20 -9 -11 0 -20 4 -20 9 0 4 -5 5 -11 1 -15 -9 -134 -8
-150 1 -8 6 -10 4 -4 -4 6 -10 3 -11 -14 -2 -11 7 -21 8 -21 3 0 -10 -30 -9
-48 2 -6 4 -12 3 -12 -2 0 -13 -33 -10 -42 3 -5 7 -8 7 -8 0 0 -11 -71 -12
-89 -1 -6 4 -11 2 -11 -5 0 -8 -4 -8 -15 1 -8 7 -15 8 -15 3 0 -5 -9 -9 -20
-9 -11 0 -20 4 -20 9 0 4 -5 5 -11 1 -15 -9 -134 -8 -150 1 -8 6 -10 4 -4 -4
6 -10 3 -11 -14 -2 -16 9 -21 9 -21 0z m2381 -219 c10 6 19 7 19 3 0 -4 11 -8
25 -8 14 0 25 5 25 10 0 7 3 7 8 0 4 -5 16 -10 27 -10 11 0 23 5 27 10 5 7 8
7 8 0 0 -5 18 -9 39 -9 38 2 63 -18 40 -31 -5 -4 -7 -10 -4 -15 3 -5 1 -11 -5
-15 -5 -3 -10 -17 -10 -31 0 -14 -4 -23 -9 -20 -5 3 -12 -5 -15 -19 -4 -14
-11 -25 -16 -25 -5 0 -7 -9 -5 -20 2 -11 0 -18 -5 -15 -4 3 -14 -8 -21 -24 -7
-16 -17 -27 -21 -25 -4 3 -8 -1 -8 -8 0 -8 -8 -21 -17 -30 -10 -9 -28 -28 -40
-43 -13 -15 -23 -23 -23 -19 0 4 -9 -3 -20 -16 -11 -13 -20 -19 -20 -15 0 4
-11 -4 -25 -19 -14 -15 -34 -28 -45 -29 -13 -1 -19 -6 -15 -15 2 -7 -1 -12 -8
-10 -18 3 -57 -12 -57 -23 0 -5 -7 -9 -16 -9 -8 0 -12 -4 -9 -10 3 -6 -1 -7
-9 -4 -9 3 -16 2 -16 -2 0 -5 -15 -15 -32 -23 -18 -8 -44 -22 -57 -33 -13 -10
-28 -15 -34 -11 -5 3 -7 2 -4 -3 3 -6 -3 -16 -15 -23 -16 -10 -19 -10 -13 1 3
7 -1 4 -9 -6 -9 -11 -16 -16 -16 -11 0 5 -11 -2 -25 -15 -17 -16 -25 -19 -25
-9 -1 10 -3 9 -11 -4 -10 -18 -69 -53 -69 -41 0 4 -9 -3 -19 -15 -11 -12 -22
-22 -25 -23 -19 0 -46 -12 -46 -19 0 -5 -7 -9 -15 -9 -8 0 -15 -5 -15 -11 0
-5 -5 -7 -10 -4 -6 3 -13 -1 -16 -10 -4 -9 -13 -14 -20 -11 -8 3 -14 0 -14 -6
0 -6 -3 -9 -6 -5 -6 5 -15 0 -48 -30 -8 -7 -16 -9 -20 -6 -3 4 -13 -2 -21 -13
-8 -10 -15 -15 -15 -10 0 5 -9 -1 -19 -13 -11 -12 -22 -22 -25 -22 -17 2 -24
-1 -42 -16 -10 -10 -26 -18 -34 -18 -8 0 -14 -5 -13 -12 2 -7 -6 -10 -17 -8
-11 2 -20 0 -20 -4 0 -4 -14 -18 -31 -30 -18 -13 -29 -19 -25 -12 4 6 3 11 -2
11 -6 0 -13 -7 -16 -16 -3 -8 -10 -12 -16 -9 -5 3 -10 2 -10 -4 0 -6 -17 -18
-37 -27 -21 -10 -50 -26 -65 -36 -16 -11 -28 -16 -28 -12 0 4 -6 0 -13 -11 -8
-10 -19 -15 -25 -11 -7 4 -12 3 -12 -3 0 -5 -9 -13 -20 -16 -11 -4 -18 -11
-15 -16 4 -5 -4 -9 -16 -9 -12 0 -28 -8 -36 -17 -8 -10 -12 -13 -9 -7 3 6 -11
3 -32 -7 -20 -10 -68 -26 -107 -35 -38 -9 -77 -20 -86 -25 -10 -4 -21 -3 -28
4 -8 8 -11 8 -11 -2 0 -11 -3 -11 -17 0 -17 14 -20 14 -40 -3 -9 -8 -13 -7
-13 3 0 11 -2 11 -10 -1 -7 -12 -10 -12 -10 -1 0 7 -6 11 -15 8 -8 -4 -17 -2
-20 3 -4 6 -11 10 -16 10 -6 0 -8 -4 -5 -9 3 -5 -15 -3 -40 5 -26 7 -50 11
-55 8 -5 -3 -9 0 -9 7 0 7 -3 9 -6 6 -4 -3 -16 -1 -28 5 -11 7 -24 11 -28 10
-5 -1 -8 2 -8 8 0 6 -3 9 -7 8 -11 -3 -137 63 -141 73 -2 5 -12 9 -23 9 -10 0
-19 4 -19 9 0 9 -38 24 -53 22 -5 -1 -6 3 -2 8 3 6 -6 13 -20 17 -14 3 -25 10
-25 16 0 5 -4 6 -10 3 -5 -3 -10 -3 -10 2 0 10 -57 43 -76 43 -8 0 -14 4 -14
9 0 5 -16 16 -35 25 -19 9 -41 23 -50 32 -10 11 -15 12 -15 3 0 -7 -6 -4 -15
7 -8 10 -15 15 -15 10 0 -5 -8 1 -19 12 -10 12 -21 19 -24 16 -3 -3 -15 3 -27
14 -13 12 -29 18 -38 15 -10 -4 -13 -2 -8 5 4 7 1 12 -8 12 -9 0 -16 5 -16 11
0 5 -4 7 -10 4 -5 -3 -10 -2 -10 4 0 6 -11 13 -25 17 -14 3 -25 11 -25 18 0 6
-4 5 -9 -3 -7 -11 -10 -9 -16 8 -3 12 -10 19 -15 16 -5 -3 -19 5 -31 17 -12
13 -19 17 -15 11 5 -9 2 -11 -8 -7 -9 3 -16 10 -16 15 0 5 -7 9 -15 9 -8 0
-15 5 -15 10 0 6 -7 10 -15 10 -8 0 -15 5 -15 11 0 5 -4 8 -9 4 -5 -3 -16 1
-23 9 -8 7 -24 17 -36 20 -12 4 -22 13 -22 19 0 7 -4 6 -10 -3 -8 -13 -10 -13
-10 1 0 10 -11 20 -25 23 -14 4 -25 11 -25 17 0 6 -4 7 -10 4 -5 -3 -10 -2
-10 4 0 9 -43 28 -47 20 -2 -2 -10 6 -18 18 -10 14 -23 20 -36 18 -12 -3 -19
-2 -16 2 8 7 -62 58 -94 68 -13 4 -32 17 -42 28 -9 11 -17 16 -17 11 0 -5 -7
-1 -14 9 -8 10 -16 17 -18 15 -3 -2 -12 5 -22 15 -10 9 -15 17 -11 17 3 0 0 6
-7 14 -7 8 -16 12 -20 9 -5 -2 -8 4 -8 13 0 10 -3 15 -6 11 -10 -9 -32 16 -27
30 3 7 -2 13 -11 13 -8 0 -18 11 -22 25 -3 14 -10 22 -15 19 -5 -3 -9 4 -9 15
0 12 -4 21 -10 21 -5 0 -10 9 -10 20 0 12 -7 20 -17 20 -14 0 -15 2 -5 9 11 6
10 11 -3 25 -9 9 -14 16 -11 16 3 0 1 11 -4 25 -8 21 -7 25 10 25 10 0 22 5
26 11 4 8 9 8 17 0 13 -13 30 -15 23 -2 -4 5 2 8 11 6 10 -2 18 -4 18 -5 0 -1
8 -3 18 -5 9 -2 17 1 17 6 0 5 12 1 27 -8 15 -10 24 -12 20 -5 -5 6 -4 12 2
12 6 0 11 -3 11 -7 0 -5 23 -8 50 -8 28 -1 50 3 50 8 0 4 5 5 11 1 17 -10 149
-11 149 -1 0 4 5 5 11 1 16 -9 90 -13 84 -4 -2 3 2 7 10 7 8 0 12 -4 9 -8 -2
-5 9 -6 26 -4 16 2 32 -1 36 -6 3 -6 12 -5 22 3 12 10 14 10 8 1 -9 -16 6 -17
22 -1 8 8 12 8 12 1 0 -14 82 -12 92 2 5 6 8 5 8 -2 0 -7 5 -13 11 -13 5 0 7
5 3 12 -5 7 -3 8 7 2 17 -10 100 -14 94 -3 -4 6 19 5 35 -2 17 -6 76 -2 82 6
5 6 8 5 8 -2 0 -7 5 -13 11 -13 5 0 7 5 3 12 -5 7 -3 8 7 2 19 -12 100 -13 92
-1 -3 5 4 4 16 -2 16 -9 21 -9 21 1 0 9 3 9 8 2 9 -13 64 -13 74 1 5 6 8 6 8
-1 0 -14 70 -13 70 1 0 6 3 6 8 -1 9 -13 64 -13 74 1 5 6 8 6 8 -1 0 -6 13
-11 30 -11 16 0 27 5 23 10 -4 6 -1 7 8 1 19 -12 82 -11 91 1 5 6 8 5 8 -2 0
-7 5 -13 11 -13 5 0 7 5 3 12 -5 7 -3 8 7 2 17 -10 100 -14 94 -3 -4 6 25 5
33 -1 8 -7 50 -5 66 3 12 6 16 6 12 -1 -7 -11 60 -10 71 2 3 3 12 1 20 -5 10
-9 13 -8 13 2 0 9 3 10 8 4 8 -12 103 -15 96 -4 -2 4 4 6 13 4 10 -2 18 -4 18
-5 0 -1 19 -3 43 -4 23 -1 42 3 42 9 0 6 3 6 8 -1 9 -13 64 -13 74 1 5 6 8 6
8 -1 0 -14 70 -13 70 1 0 6 3 6 8 -1 9 -13 64 -13 74 1 5 6 8 6 8 -1 0 -13 58
-13 78 0 6 4 18 4 25 -1 16 -10 98 -12 92 -2 -3 4 3 6 12 4 10 -2 18 -4 18 -5
0 -1 19 -3 43 -4 23 -1 42 3 42 9 0 5 5 3 10 -5 7 -12 10 -12 10 -1 0 7 6 11
15 7 8 -3 15 0 15 7 0 7 3 8 8 2 9 -13 55 -18 47 -5 -3 5 0 7 9 4 28 -11 106
-10 106 0 0 7 3 8 8 1 8 -11 124 -16 117 -5 -3 4 13 4 35 0 29 -5 43 -3 56 9
9 9 14 10 10 4 -9 -16 10 -17 19 -3 5 8 11 8 20 0 10 -8 15 -8 20 0 5 8 11 8
21 -1 11 -9 14 -8 14 2 0 9 3 10 8 3 7 -11 62 -11 81 0 5 4 13 2 16 -4 5 -8
11 -8 20 0 9 8 15 8 20 0 4 -7 13 -7 27 1 16 9 19 8 13 -2 -6 -9 -3 -10 11 -4
10 4 34 8 51 9 18 1 33 6 34 11 0 6 3 4 6 -2 3 -9 10 -10 24 -3z"/>
<path d="M4320 1368 c-24 -44 -51 -83 -60 -87 -8 -4 -49 -13 -90 -20 -120 -20
-117 -14 -38 -92 l71 -70 -7 -62 c-4 -34 -9 -79 -12 -99 -2 -21 -2 -38 1 -38
3 0 45 18 95 41 l90 40 91 -40 c50 -23 94 -41 96 -41 3 0 2 17 -1 38 -3 20 -8
65 -12 99 l-7 61 72 70 72 70 -48 11 c-26 6 -66 14 -88 17 -68 9 -72 13 -120
94 -26 44 -50 82 -53 84 -4 2 -27 -32 -52 -76z"/>
<path d="M2744 1358 l-50 -83 -97 -19 c-53 -10 -97 -21 -97 -25 0 -3 30 -37
66 -76 l65 -70 -6 -50 c-3 -27 -8 -71 -11 -98 -8 -54 -21 -55 113 2 l73 30 96
-39 96 -39 -7 77 c-3 42 -8 86 -11 97 -2 14 17 42 66 95 l70 75 -101 22 c-56
12 -106 27 -111 35 -5 7 -27 43 -49 81 -23 37 -44 67 -48 67 -3 0 -29 -37 -57
-82z"/>
<path d="M3599 1235 c-19 -31 -47 -77 -64 -102 l-30 -47 -120 -26 c-65 -14
-118 -29 -118 -33 1 -5 37 -47 80 -93 43 -47 77 -89 77 -92 -2 -8 -15 -150
-19 -199 -1 -18 1 -33 4 -33 4 0 56 21 116 46 124 53 97 54 264 -15 74 -31 96
-37 88 -23 -3 4 -8 48 -11 97 -4 50 -9 100 -12 111 -4 17 13 41 78 109 89 93
95 101 76 102 -35 2 -225 46 -235 55 -7 6 -39 52 -70 104 -32 52 -61 94 -64
94 -4 0 -22 -25 -40 -55z"/>
</g>
</svg>
